<?xml version="1.0" standalone="no"?>
<!DOCTYPE svg PUBLIC "-//W3C//DTD SVG 20010904//EN"
 "http://www.w3.org/TR/2001/REC-SVG-20010904/DTD/svg10.dtd">
<svg version="1.0" xmlns="http://www.w3.org/2000/svg"
 width="700.000000pt" height="700.000000pt" viewBox="0 0 700.000000 700.000000"
 preserveAspectRatio="xMidYMid meet">
<metadata>
Created by potrace 1.11, written by Peter Selinger 2001-2013
</metadata>
<g transform="translate(0.000000,700.000000) scale(0.100000,-0.100000)"
fill="#000000" stroke="none">
<path d="M3348 5803 c-156 -24 -285 -73 -413 -158 -382 -254 -527 -727 -353
-1149 49 -121 111 -207 251 -352 97 -100 201 -240 266 -359 50 -90 131 -267
131 -286 0 -23 -174 103 -270 195 -216 208 -469 309 -753 301 -138 -4 -225
-22 -357 -75 -251 -100 -463 -324 -549 -580 -34 -102 -49 -206 -46 -320 2
-104 28 -256 46 -274 5 -6 9 -16 9 -23 0 -26 70 -161 116 -224 56 -77 189
-209 247 -243 208 -123 365 -170 569 -168 163 1 301 34 449 106 95 47 171 104
289 219 94 91 219 184 333 245 l58 32 -6 -58 c-46 -475 -188 -891 -391 -1142
-73 -91 -147 -154 -256 -217 -41 -24 -181 -73 -209 -73 -11 0 -19 -3 -19 -7 0
-5 461 -8 1024 -8 563 0 1022 4 1019 8 -3 5 -7 6 -10 4 -8 -8 -142 32 -202 60
-220 103 -393 317 -519 643 -71 182 -135 450 -157 655 -3 33 -8 73 -11 88 l-4
28 42 -22 c88 -45 233 -148 322 -229 21 -19 42 -35 47 -35 6 0 33 -20 60 -45
117 -104 296 -192 459 -226 90 -19 253 -23 353 -11 80 11 258 70 333 112 243
136 417 364 479 625 35 147 26 350 -21 495 -59 179 -210 388 -343 473 -15 9
-32 23 -40 30 -24 23 -214 111 -276 128 -161 43 -326 48 -486 16 -207 -43
-343 -119 -572 -323 -59 -52 -205 -159 -218 -159 -4 0 5 30 20 68 105 254 202
404 394 608 52 56 113 129 137 163 40 59 100 176 104 203 1 7 4 18 8 23 18 30
41 174 43 268 4 226 -53 407 -186 587 -63 86 -154 172 -245 231 -201 132 -462
189 -696 152z"/>
</g>
</svg>
